<svg xmlns="http://www.w3.org/2000/svg" viewBox="0 0 760 420" width="760" height="420" role="img" aria-labelledby="t d" font-family="system-ui, -apple-system, 'Segoe UI', Roboto, Helvetica, Arial, sans-serif">
  <title id="t">Revenue and order intake, 2015–2025</title>
  <desc id="d">Line chart. Revenue rose from 3,174 to 5,664 million euros; order intake from 3,189 to 5,565, peaking at 5,783 in 2022.</desc>
  <rect width="760" height="420" rx="8" fill="#1a1a19"/>
  <text x="20" y="30" font-size="17" font-weight="600" fill="#ffffff">Revenue and order intake, 2015–2025</text>
  <text x="20" y="52" font-size="13" fill="#c3c2b7">€ million · orders ran far ahead of revenue in 2021–22, filling the backlog</text>
  <line x1="20" y1="75" x2="38" y2="75" stroke="#3987e5" stroke-width="2" stroke-linecap="round"/>
  <circle cx="29" cy="75" r="4" fill="#3987e5" stroke="#1a1a19" stroke-width="2"/>
  <text x="46" y="79.5" font-size="13" fill="#c3c2b7">Revenue (2025: 5,664)</text>
  <line x1="227.4" y1="75" x2="245.4" y2="75" stroke="#d95926" stroke-width="2" stroke-linecap="round"/>
  <circle cx="236.4" cy="75" r="4" fill="#d95926" stroke="#1a1a19" stroke-width="2"/>
  <text x="253.4" y="79.5" font-size="13" fill="#c3c2b7">Order intake (2025: 5,565)</text>
  <line x1="64" y1="376.0" x2="732" y2="376.0" stroke="#383835" stroke-width="1" shape-rendering="crispEdges"/>
  <text x="56" y="380.0" font-size="12" fill="#898781" text-anchor="end" style="font-variant-numeric: tabular-nums">0</text>
  <line x1="64" y1="330.7" x2="732" y2="330.7" stroke="#2c2c2a" stroke-width="1" shape-rendering="crispEdges"/>
  <text x="56" y="334.7" font-size="12" fill="#898781" text-anchor="end" style="font-variant-numeric: tabular-nums">1,000</text>
  <line x1="64" y1="285.3" x2="732" y2="285.3" stroke="#2c2c2a" stroke-width="1" shape-rendering="crispEdges"/>
  <text x="56" y="289.3" font-size="12" fill="#898781" text-anchor="end" style="font-variant-numeric: tabular-nums">2,000</text>
  <line x1="64" y1="240.0" x2="732" y2="240.0" stroke="#2c2c2a" stroke-width="1" shape-rendering="crispEdges"/>
  <text x="56" y="244.0" font-size="12" fill="#898781" text-anchor="end" style="font-variant-numeric: tabular-nums">3,000</text>
  <line x1="64" y1="194.7" x2="732" y2="194.7" stroke="#2c2c2a" stroke-width="1" shape-rendering="crispEdges"/>
  <text x="56" y="198.7" font-size="12" fill="#898781" text-anchor="end" style="font-variant-numeric: tabular-nums">4,000</text>
  <line x1="64" y1="149.3" x2="732" y2="149.3" stroke="#2c2c2a" stroke-width="1" shape-rendering="crispEdges"/>
  <text x="56" y="153.3" font-size="12" fill="#898781" text-anchor="end" style="font-variant-numeric: tabular-nums">5,000</text>
  <line x1="64" y1="104.0" x2="732" y2="104.0" stroke="#2c2c2a" stroke-width="1" shape-rendering="crispEdges"/>
  <text x="56" y="108.0" font-size="12" fill="#898781" text-anchor="end" style="font-variant-numeric: tabular-nums">6,000</text>
  <text x="94.4" y="398" font-size="12" fill="#898781" text-anchor="middle" style="font-variant-numeric: tabular-nums">2015</text>
  <text x="155.1" y="398" font-size="12" fill="#898781" text-anchor="middle" style="font-variant-numeric: tabular-nums">2016</text>
  <text x="215.8" y="398" font-size="12" fill="#898781" text-anchor="middle" style="font-variant-numeric: tabular-nums">2017</text>
  <text x="276.5" y="398" font-size="12" fill="#898781" text-anchor="middle" style="font-variant-numeric: tabular-nums">2018</text>
  <text x="337.3" y="398" font-size="12" fill="#898781" text-anchor="middle" style="font-variant-numeric: tabular-nums">2019</text>
  <text x="398.0" y="398" font-size="12" fill="#898781" text-anchor="middle" style="font-variant-numeric: tabular-nums">2020</text>
  <text x="458.7" y="398" font-size="12" fill="#898781" text-anchor="middle" style="font-variant-numeric: tabular-nums">2021</text>
  <text x="519.5" y="398" font-size="12" fill="#898781" text-anchor="middle" style="font-variant-numeric: tabular-nums">2022</text>
  <text x="580.2" y="398" font-size="12" fill="#898781" text-anchor="middle" style="font-variant-numeric: tabular-nums">2023</text>
  <text x="640.9" y="398" font-size="12" fill="#898781" text-anchor="middle" style="font-variant-numeric: tabular-nums">2024</text>
  <text x="701.6" y="398" font-size="12" fill="#898781" text-anchor="middle" style="font-variant-numeric: tabular-nums">2025</text>
  <path d="M94.4,231.4 L155.1,220.0 L215.8,204.3 L276.5,196.6 L337.3,190.9 L398.0,226.1 L458.7,180.3 L519.5,113.8 L580.2,132.3 L640.9,128.4 L701.6,123.7" fill="none" stroke="#d95926" stroke-width="2" stroke-linejoin="round" stroke-linecap="round"/>
  <g><title>2015 order intake: €3,189m</title><circle cx="94.4" cy="231.4" r="4" fill="#d95926" stroke="#1a1a19" stroke-width="2"/></g>
  <g><title>2016 order intake: €3,441m</title><circle cx="155.1" cy="220.0" r="4" fill="#d95926" stroke="#1a1a19" stroke-width="2"/></g>
  <g><title>2017 order intake: €3,787m</title><circle cx="215.8" cy="204.3" r="4" fill="#d95926" stroke="#1a1a19" stroke-width="2"/></g>
  <g><title>2018 order intake: €3,957m</title><circle cx="276.5" cy="196.6" r="4" fill="#d95926" stroke="#1a1a19" stroke-width="2"/></g>
  <g><title>2019 order intake: €4,084m</title><circle cx="337.3" cy="190.9" r="4" fill="#d95926" stroke="#1a1a19" stroke-width="2"/></g>
  <g><title>2020 order intake: €3,307m</title><circle cx="398.0" cy="226.1" r="4" fill="#d95926" stroke="#1a1a19" stroke-width="2"/></g>
  <g><title>2021 order intake: €4,316m</title><circle cx="458.7" cy="180.3" r="4" fill="#d95926" stroke="#1a1a19" stroke-width="2"/></g>
  <g><title>2022 order intake: €5,783m</title><circle cx="519.5" cy="113.8" r="4" fill="#d95926" stroke="#1a1a19" stroke-width="2"/></g>
  <g><title>2023 order intake: €5,377m</title><circle cx="580.2" cy="132.3" r="4" fill="#d95926" stroke="#1a1a19" stroke-width="2"/></g>
  <g><title>2024 order intake: €5,461m</title><circle cx="640.9" cy="128.4" r="4" fill="#d95926" stroke="#1a1a19" stroke-width="2"/></g>
  <g><title>2025 order intake: €5,565m</title><circle cx="701.6" cy="123.7" r="4" fill="#d95926" stroke="#1a1a19" stroke-width="2"/></g>
  <path d="M94.4,232.1 L155.1,222.3 L215.8,208.7 L276.5,201.3 L337.3,196.5 L398.0,225.4 L458.7,211.2 L519.5,185.2 L580.2,162.0 L640.9,136.0 L701.6,119.2" fill="none" stroke="#3987e5" stroke-width="2" stroke-linejoin="round" stroke-linecap="round"/>
  <g><title>2015 revenue: €3,174m</title><circle cx="94.4" cy="232.1" r="4" fill="#3987e5" stroke="#1a1a19" stroke-width="2"/></g>
  <g><title>2016 revenue: €3,391m</title><circle cx="155.1" cy="222.3" r="4" fill="#3987e5" stroke="#1a1a19" stroke-width="2"/></g>
  <g><title>2017 revenue: €3,691m</title><circle cx="215.8" cy="208.7" r="4" fill="#3987e5" stroke="#1a1a19" stroke-width="2"/></g>
  <g><title>2018 revenue: €3,854m</title><circle cx="276.5" cy="201.3" r="4" fill="#3987e5" stroke="#1a1a19" stroke-width="2"/></g>
  <g><title>2019 revenue: €3,959m</title><circle cx="337.3" cy="196.5" r="4" fill="#3987e5" stroke="#1a1a19" stroke-width="2"/></g>
  <g><title>2020 revenue: €3,323m</title><circle cx="398.0" cy="225.4" r="4" fill="#3987e5" stroke="#1a1a19" stroke-width="2"/></g>
  <g><title>2021 revenue: €3,634m</title><circle cx="458.7" cy="211.2" r="4" fill="#3987e5" stroke="#1a1a19" stroke-width="2"/></g>
  <g><title>2022 revenue: €4,209m</title><circle cx="519.5" cy="185.2" r="4" fill="#3987e5" stroke="#1a1a19" stroke-width="2"/></g>
  <g><title>2023 revenue: €4,721m</title><circle cx="580.2" cy="162.0" r="4" fill="#3987e5" stroke="#1a1a19" stroke-width="2"/></g>
  <g><title>2024 revenue: €5,294m</title><circle cx="640.9" cy="136.0" r="4" fill="#3987e5" stroke="#1a1a19" stroke-width="2"/></g>
  <g><title>2025 revenue: €5,664m</title><circle cx="701.6" cy="119.2" r="4" fill="#3987e5" stroke="#1a1a19" stroke-width="2"/></g>
  <text x="519.5" y="101.8" font-size="12" font-weight="400" fill="#c3c2b7" text-anchor="middle" style="font-variant-numeric: tabular-nums">5,783 (2022 peak)</text>
  <text x="398.0" y="249.4" font-size="12" font-weight="400" fill="#c3c2b7" text-anchor="middle" style="font-variant-numeric: tabular-nums">3,323 (COVID)</text>
</svg>
